<svg width="230" height="55" viewBox="0 0 230 55" fill="none" xmlns="http://www.w3.org/2000/svg">
  <path fill-rule="evenodd" clip-rule="evenodd" d="M0.184448 38.9162V43.0298H11.3437V38.9162H8.72554L10.0346 34.0901H17.393L18.4898 38.9162H15.8702V43.0298H29.8913V38.9162H27.5714L21.5365 12.5257H9.62172L2.71799 38.9162H0.184448ZM31.1588 38.9162V43.0298H44.8229V38.9162H42.602V12.5257H31.1588V16.6393H33.721V38.9162H31.1588ZM46.1034 38.9162V43.0298H59.7689V38.9162H57.5766V12.5257H46.1034V16.6393H48.6942V38.9162H46.1034ZM61.2356 38.9162V43.0298H74.8281V38.9162H72.5798V20.5106H61.2356V24.6242H63.6975V38.9162H61.2356ZM90.4722 26.5468V30.5614C88.8349 29.4086 86.7716 28.8237 84.7486 28.8237C80.2638 28.8237 76.0226 31.0459 76.0226 36.014C76.0226 40.7815 79.7806 43.5417 84.3214 43.5417C85.7881 43.5417 87.3538 43.1731 88.7059 42.6025C89.5031 42.2743 90.0306 41.778 90.5999 41.1645C90.6416 41.0941 90.8838 40.7528 90.9125 40.8089C90.9639 40.9043 91.0134 40.9998 91.0625 41.0943C91.3936 41.7328 91.7034 42.3302 92.4352 42.6025C93.5594 43.0141 94.7838 43.0298 95.9653 43.0298H101.702V38.9162H100.847C99.3963 38.9162 99.3533 37.2502 99.3533 36.169V29.1806C99.3533 26.7187 99.1826 23.8999 97.148 22.2066C94.7851 20.2423 91.2837 20.0143 88.3516 20.0143C85.7751 20.0143 82.8573 20.2136 80.6077 21.5514C78.4155 22.8331 77.6756 24.8964 77.6183 27.288H85.0912V26.8881C85.0912 25.1244 85.6461 23.7866 87.6391 23.6863C89.4184 23.6003 90.4722 24.8391 90.4722 26.5468ZM102.869 38.9162V43.0285H116.662V38.9149H114.243V28.7664C114.243 26.8295 115.354 25.1361 117.403 25.0215C119.809 24.8795 120.479 26.6875 120.479 28.7664V38.9149H118.087V43.0285H131.694V38.9149H129.358V28.7664C129.358 28.6813 129.359 28.5962 129.359 28.511C129.361 26.5859 129.363 24.6359 128.206 22.9868C126.71 20.8805 123.907 20.1263 121.444 20.1263C118.612 20.1263 116.206 21.1658 114.242 23.1588V20.5106H102.869V24.6242H105.36V38.9162H102.869ZM133.017 38.9162V43.0298H156.29V34.6593H149.259V38.9162H143.835L155.679 24.6242V20.5106H134.013V28.7677H140.32V24.6242H145.415L133.017 38.9162ZM229.112 27.2293C229.112 12.2561 216.842 0 201.867 0C186.923 0 174.638 12.2691 174.638 27.2293C174.638 42.174 186.923 54.46 201.867 54.46C216.842 54.46 229.112 42.2052 229.112 27.2293ZM68.181 12.1128C65.9744 12.1128 63.8395 13.4649 63.8395 15.8564C63.8395 18.119 65.7751 19.6144 67.9387 19.6144C70.3589 19.6144 72.4795 18.205 72.4795 15.6285C72.4795 13.3516 70.2156 12.1128 68.181 12.1128ZM16.7104 29.8918H10.8461L13.635 17.3648C13.6636 17.2515 13.7926 17.1239 13.9059 17.1095C14.0492 17.0952 14.1495 17.2515 14.1769 17.3648L16.7104 29.8918ZM178.426 27.2293C178.426 14.3467 188.986 3.78532 201.867 3.78532C214.763 3.78532 225.327 14.3194 225.327 27.2293C225.327 40.112 214.751 50.6721 201.867 50.6721C189.001 50.6721 178.426 40.0963 178.426 27.2293ZM84.4933 36.126C84.4933 34.4613 86.0017 33.2226 87.6104 33.2226C89.2048 33.2226 90.7132 34.4613 90.7132 36.126C90.7132 37.8077 89.2048 39.0308 87.6104 39.0308C86.0017 39.0308 84.4933 37.7921 84.4933 36.126Z" fill="white"/>
  <path fill-rule="evenodd" clip-rule="evenodd" d="M187.078 43.0298V23.7853C187.078 20.6396 187.264 15.9424 189.896 13.7775C191.306 12.6104 193.254 12.4684 195.008 12.4684C195.349 12.4684 195.689 12.4958 196.033 12.5244V16.638C196.033 17.5342 196.457 18.5176 197.483 18.5176C198.48 18.5176 198.806 17.4782 198.806 16.638V12.2965C197.966 12.3681 197.64 12.9947 197.213 13.6342V7.89762C198.622 7.24242 200.317 7.07178 201.853 7.07178C202.891 7.07178 204.13 7.15644 205.069 7.65534V16.6367C205.069 17.5902 205.469 18.502 206.55 18.502C207.575 18.502 207.845 17.4912 207.845 16.6367V12.5257C208.359 12.5114 208.87 12.4971 209.384 12.4971C216.302 12.4971 216.786 18.2337 216.786 23.7853V43.0298H187.078ZM196.913 36.2667V25.0944C195.962 24.7101 194.965 24.5812 193.955 24.5812C192.815 24.5812 191.691 24.7088 190.61 25.0944V29.5506C190.938 29.0947 191.577 28.8511 192.103 28.7664V33.0793L196.913 36.2667ZM202.524 40.0117L205.07 38.2897V25.0944C204.104 24.6098 203.007 24.5395 201.926 24.5395C200.759 24.5395 199.563 24.5825 198.493 25.0944V29.4789C198.88 29.0947 199.404 28.9084 199.918 28.7664V38.2897L202.524 40.0117ZM208.131 36.2824L212.899 33.1066V25.0944C211.96 24.5955 210.921 24.4965 209.853 24.4965C208.756 24.4965 207.592 24.5682 206.607 25.0944V29.4789C206.963 29.1663 207.378 29.0087 207.833 28.8654L208.131 28.7664V36.2824Z" fill="white"/>
  </svg>