<svg width="156" height="51" viewBox="0 0 156 51" fill="none" xmlns="http://www.w3.org/2000/svg">
    <g clip-path="url(#clip0_29_511)">
    <path d="M15.7676 35.6881C12.8903 35.6881 11.5087 33.4959 12.228 30.9585C13.7202 25.7023 23.3049 17.9119 29.8357 17.9119C34.604 17.9119 34.2376 22.1336 31.4464 25.7366L29.9027 27.4274C24.366 32.8121 19.2324 35.6881 15.7676 35.6881ZM39.1143 0.239853C30.7784 0.243173 21.5959 5.29582 15.8335 10.0818L16.2881 10.7347C25.2338 4.52121 37.6511 0.478874 41.0746 6.54072C42.8818 9.73985 39.8124 16.1967 35.492 21.3025C36.5285 19.0473 35.845 14.7195 29.8212 14.7195C19.8032 14.7184 0.0888672 27.8645 0.0888672 41.315C0.0888672 46.7052 3.86084 50.2219 10.0745 50.2219C26.7116 50.2219 49.2764 23.2036 49.2764 9.63362C49.2753 4.84102 46.4918 0.239853 39.1143 0.239853ZM60.532 35.6881C59.5658 35.6881 58.7594 35.3506 58.2556 34.743C57.7295 34.1012 57.5731 33.1949 57.8233 32.2554C58.374 30.2182 60.5889 28.6236 62.8642 28.6236H68.2166L66.3066 35.6892L60.532 35.6881ZM75.9237 14.5037C74.3901 12.638 71.9138 11.8047 70.1378 11.8047H60.4069L58.7549 17.9075H67.9307L68.8086 17.9994C68.8187 17.9994 69.6542 18.0956 70.1155 18.7164C70.493 19.2332 70.5466 20.0045 70.2774 21.0126L69.8429 22.6171H64.0627C59.0855 22.6171 52.1492 26.1527 50.6044 31.8659C49.8349 34.7154 50.5084 37.183 52.0029 38.9967C53.4862 40.796 56.2819 41.7864 59.3044 41.7864H64.658L64.6558 41.7886H71.4625L74.6537 29.9792L77.0038 21.2981C77.9264 17.8887 76.9267 15.7198 75.9237 14.5037ZM142.758 11.8047C140.126 11.8047 137.683 12.576 135.691 14.0378C133.683 15.5118 132.575 17.2845 131.915 19.7256C130.484 25.0173 134.679 27.5713 138.056 29.3806C140.474 30.6808 142.564 31.8006 142.114 33.4605C141.792 34.6523 141.268 35.6936 138.291 35.6936H129.206L127.556 41.7975H137.611C140.307 41.7975 142.797 41.2398 144.802 39.7149C146.811 38.1856 147.943 36.0521 148.647 33.4506C149.319 30.9729 148.862 28.6082 147.256 26.8409C145.917 25.3614 143.986 24.3312 142.287 23.4216C140.11 22.2597 138.057 21.1642 138.416 19.8352C138.633 19.034 139.442 17.9119 141.199 17.9119H150.034L151.686 11.8092H142.756V11.8047H142.758ZM90.0297 11.8047C87.3982 11.8047 84.9532 12.576 82.9627 14.0378C80.9544 15.5118 79.8475 17.2845 79.1829 19.7256C77.7521 25.0173 81.9519 27.5713 85.3251 29.3806C87.7444 30.6808 89.8354 31.8006 89.3852 33.4605C89.0624 34.6523 88.5386 35.6936 85.5608 35.6936H76.4788L74.8268 41.7975H84.8828C87.5814 41.7975 90.0711 41.2398 92.0738 39.7149C94.0843 38.1856 95.2158 36.0521 95.9183 33.4506C96.5908 30.9729 96.1328 28.6082 94.53 26.8409C93.1918 25.3614 91.2584 24.3312 89.5561 23.4216C87.3814 22.2597 85.3285 21.1642 85.6892 19.8352C85.9048 19.034 86.7146 17.9119 88.4682 17.9119H97.3011L98.9542 11.8092H90.0286V11.8047H90.0297ZM103.752 11.8047L95.8647 41.792H102.527L110.41 11.8047H103.752ZM128.139 11.8047C116.409 11.8468 110.271 19.5873 108.32 26.7978C106.009 35.3483 110.603 41.7931 119.005 41.7931H124.636L126.286 35.6892H120.658C117.513 35.6892 113.188 33.2359 114.931 26.7978C116.315 21.6787 121.349 17.9075 126.879 17.9075H130.452L132.104 11.8047H128.139ZM151.22 40.4209H151.802V39.124H152.266C152.577 39.124 152.795 39.1572 152.915 39.228C153.124 39.3508 153.232 39.6042 153.232 39.9849V40.2472L153.242 40.3523C153.246 40.3678 153.247 40.3789 153.252 40.391L153.26 40.4209H153.808L153.788 40.3811C153.769 40.3258 153.759 40.2679 153.759 40.2095C153.753 40.1278 153.75 40.0459 153.75 39.9639V39.7227C153.744 39.5385 153.681 39.3605 153.57 39.2125C153.45 39.0377 153.257 38.9303 152.996 38.8883C153.2 38.8573 153.362 38.8075 153.479 38.7278C153.696 38.5884 153.804 38.3748 153.802 38.0783C153.804 37.6655 153.633 37.3878 153.29 37.245C153.097 37.1676 152.795 37.1299 152.382 37.1299H151.22V40.4209ZM152.889 38.6471C152.768 38.6946 152.582 38.7201 152.334 38.7201H151.803V37.5283H152.301C152.626 37.5283 152.863 37.567 153.011 37.6489C153.159 37.7308 153.233 37.8913 153.233 38.1314C153.233 38.3848 153.118 38.5563 152.889 38.6471ZM154.587 36.6685C154.307 36.3863 153.972 36.1634 153.602 36.0134C153.232 35.8633 152.836 35.7891 152.436 35.7954C151.607 35.7954 150.893 36.0875 150.303 36.6685C150.018 36.9425 149.792 37.2715 149.64 37.6352C149.488 37.9989 149.413 38.3896 149.42 38.7832C149.42 39.6175 149.712 40.328 150.297 40.9122C150.885 41.4987 151.6 41.7931 152.439 41.7931C153.278 41.7931 153.993 41.4987 154.584 40.9122C155.176 40.3246 155.473 39.6153 155.473 38.7832C155.473 37.9566 155.177 37.2505 154.587 36.6685ZM154.283 36.9595C154.792 37.463 155.046 38.0716 155.046 38.7821C155.046 39.5013 154.792 40.1133 154.283 40.6201C153.779 41.1269 153.164 41.3814 152.441 41.3814C151.718 41.3814 151.105 41.128 150.596 40.6201C150.351 40.3801 150.158 40.0935 150.028 39.7776C149.899 39.4617 149.835 39.1231 149.841 38.7821C149.841 38.0694 150.095 37.463 150.599 36.9595C150.837 36.7149 151.123 36.5213 151.439 36.3905C151.756 36.2598 152.096 36.1947 152.439 36.1993C152.782 36.1942 153.123 36.2591 153.44 36.3898C153.758 36.5206 154.044 36.7145 154.283 36.9595Z" fill="white"/>
    </g>
    <defs>
    <clipPath id="clip0_29_511">
    <rect width="155.385" height="50" fill="white" transform="translate(0.0888672 0.229996)"/>
    </clipPath>
    </defs>
    </svg>