<svg width="314" height="32" viewBox="0 0 314 32" fill="none" xmlns="http://www.w3.org/2000/svg">
    <path fill-rule="evenodd" clip-rule="evenodd" d="M50.2831 0.761979L66.9366 7.9634C66.9366 7.9634 58.4939 11.4589 43.2029 13.7417C43.2029 13.7417 55.9151 19.552 66.612 31.3154H46.8161C46.8161 31.3154 44.1803 26.2184 38.2807 20.4687C34.8423 17.0909 30.0735 13.7987 24.5306 10.717C21.3312 8.94071 18.039 7.33921 14.2475 5.7698C14.2475 5.7698 10.4274 4.2004 6.66081 2.83431C4.082 1.91763 1.56382 1.17573 0.112122 0.733444C0.112122 0.733444 21.4203 6.03732 33.9542 5.29542C33.9542 5.29542 41.8975 5.74127 50.2831 0.761979Z" fill="#F2E308"/>
    <path fill-rule="evenodd" clip-rule="evenodd" d="M289.022 19.0777H299.155L294.8 8.70184H293.377L289.022 19.0777ZM275.211 31.6401L288.13 1.08667H300.282L313.083 31.6116H304.491L302.415 26.7215L285.758 26.7536L283.653 31.6401H275.211ZM140.342 19.1633H150.479L146.092 8.79458H144.668L140.342 19.1633ZM126.503 31.7293L139.454 1.17584H151.574L164.347 31.6686H155.811L153.707 26.7821L137.082 26.8392L134.949 31.7293H126.503ZM249.544 16.2314H262.142C263.326 16.2314 264.307 15.2826 264.307 14.0664L264.275 11.2807C264.275 10.0679 263.355 9.1477 262.17 9.1477L249.544 9.11916V16.2314ZM86.1119 23.6682H98.528C101.078 23.6682 103.122 21.6245 103.122 19.0777V13.6811C103.122 11.163 101.078 9.11916 98.528 9.11916H86.1119V23.6682ZM78.3469 1.08667H100.661C106.293 1.08667 110.855 5.65221 110.855 11.2807V21.5353C110.855 27.1673 106.322 31.7007 100.693 31.7007L78.3469 31.6401V1.08667ZM174.808 23.6682H187.224C189.742 23.6682 191.786 21.6245 191.786 19.0777V13.6811C191.786 11.163 189.742 9.11916 187.224 9.11916H174.808V23.6682ZM230.016 13.6811C230.016 11.163 228 9.11916 225.482 9.11916H216.237C213.719 9.11916 211.671 11.1344 211.671 13.6811V19.1063C211.671 21.653 213.719 23.6682 216.237 23.6682H225.454C228 23.6682 230.016 21.6245 230.016 19.1063V13.6811ZM167.043 1.08667H189.357C194.989 1.08667 199.551 5.65221 199.551 11.2807V21.5353C199.551 27.1673 194.989 31.7007 189.389 31.7007L167.043 31.6401V1.08667ZM262.11 1.08667C267.745 1.08667 272.304 5.65221 272.304 11.2807V16.2314C272.304 17.9792 271.326 19.4309 269.786 20.023L269.907 20.0551C271.387 20.6792 272.304 22.0953 272.304 23.8181V31.6401H264.275V26.7821C264.275 26.7821 264.514 23.7289 261.874 23.6682H249.544V31.6401H241.811V1.08667H262.11ZM237.898 21.4497C237.898 27.0781 233.308 31.6686 227.676 31.6686L214.015 31.7007C208.386 31.7007 203.821 27.1673 203.821 21.5353L203.789 11.2807C203.789 5.65221 208.322 1.11877 213.958 1.11877H227.793C233.425 1.11877 237.898 5.65221 237.898 11.2807V21.4497ZM115.481 1.14731H123.778L123.749 31.6401H115.421L115.481 1.14731Z" fill="white"/>
    </svg>