<svg width="229" height="42" viewBox="0 0 229 42" fill="none" xmlns="http://www.w3.org/2000/svg">
  <path fill-rule="evenodd" clip-rule="evenodd" d="M19.1337 0.746048C29.3965 0.746048 37.7461 8.98473 37.7461 19.0851C37.7461 29.1593 29.3965 37.3979 19.1337 37.3979C8.90235 37.3979 0.526489 29.1593 0.526489 19.0851C0.526489 8.98473 8.90235 0.746048 19.1337 0.746048ZM53.0984 19.9085H61.967V30.0088C61.967 30.0088 62.1295 32.6309 60.5989 34.4926H70.4319C70.4319 34.4926 68.9486 33.7637 68.9486 29.7938V9.6927C68.9486 9.6927 68.6394 7.17023 70.9299 5.3767H60.5989C60.5989 5.3767 61.967 6.08467 61.967 9.5983V16.7252H53.0984V9.5983C53.0984 6.08467 54.4664 5.3767 54.4664 5.3767H44.1355C46.426 7.17023 46.1168 9.6927 46.1168 9.6927V29.7991C46.1168 33.7637 44.6544 34.4979 44.6544 34.4979H54.4664C52.9569 32.6309 53.0984 30.0088 53.0984 30.0088V19.9085ZM215.967 16.9612H219.505C219.505 16.9612 221.297 17.0346 222.078 16.0172V21.0412C222.078 21.0412 221.182 19.9347 219.295 19.9347H215.972V29.8725C215.972 29.8725 217.738 31.1206 220.17 31.1206C222.602 31.1206 225.925 30.2973 228.19 27.5598L225.642 34.4979H207.879C207.879 34.4979 209.362 33.7689 209.362 29.7991V9.6927C209.362 9.6927 209.671 7.17023 207.36 5.3767H224.484L226.58 11.1086L226.109 11.3237C226.109 11.3237 224.196 8.56519 220.521 8.56519H215.967V16.9612ZM197.543 16.9612H201.081C201.081 16.9612 202.873 17.0346 203.649 16.0172V21.0412C203.649 21.0412 202.753 19.9347 200.866 19.9347H197.543V29.8725L197.542 29.9449L197.542 30.046C197.533 31.0914 197.514 33.5385 199.382 34.4979H189.45C189.45 34.4979 190.933 33.769 190.933 29.7991V9.6927C190.933 9.6927 191.242 7.17023 188.952 5.3767H206.055L208.151 11.1086L207.68 11.3237C207.68 11.3237 205.772 8.56519 202.092 8.56519H197.537V16.9612H197.543ZM132.68 34.4927C132.68 34.4927 134.918 33.0557 135.793 30.528L143.152 9.38329C143.152 9.38329 144.284 6.97619 142.68 5.37146H149.52L158.342 31.3304C158.342 31.3304 158.861 32.8879 159.736 34.0207C160.161 33.4281 160.727 32.2271 160.727 29.7938V9.6927C160.727 9.6927 161.036 7.17023 158.745 5.3767H168.793C167.897 6.50946 167.331 7.33805 167.331 9.64551V29.8672C167.331 29.8672 169.663 31.1154 171.529 31.1154C173.395 31.1154 176.881 30.292 179.171 27.5545V9.6927C179.171 9.6927 179.481 7.17023 177.19 5.3767H187.521C187.521 5.3767 186.153 6.08467 186.153 9.59831V30.0088C186.153 30.0088 185.985 32.631 187.521 34.4927H177.688C177.688 34.4927 179.177 33.7637 179.177 29.7938V27.5808L176.629 34.4927H150.888C150.888 34.4927 151.738 33.7637 151.738 32.0174C151.738 30.271 150.626 24.0147 142.633 22.7403L139.593 31.6608C139.593 31.6608 139.121 33.3389 140.489 34.4927H132.68ZM98.6205 30.0088C98.6205 30.0088 98.479 32.631 99.9938 34.4927V34.4979H90.6744C90.6744 34.4979 92.1578 33.7637 92.1578 29.7991V28.3412L89.8934 34.4979H72.1354C72.1354 34.4979 73.5977 33.7637 73.5977 29.7991V9.6927C73.5977 9.6927 73.907 7.16499 71.6217 5.37146H88.7456L90.8422 11.1034L90.3704 11.3184C90.3704 11.3184 88.4625 8.55995 84.783 8.55995H80.2282V16.9612H83.74C83.74 16.9612 85.5588 17.0346 86.3345 16.0172V21.0412C86.3345 21.0412 85.4382 19.9347 83.5513 19.9347H80.2282V29.8725C80.2282 29.8725 81.9998 31.1206 84.4266 31.1206C86.7381 31.1206 89.8987 30.3654 92.163 27.8902V9.6927C92.163 9.6927 92.4723 7.17023 90.1817 5.3767H104.522C104.522 5.3767 111.032 5.63367 111.032 12.0316C111.032 17.9314 105.985 18.5659 105.985 18.5659C105.985 18.5659 107.594 24.0881 110.236 28.1471C111.342 29.8935 112.898 32.18 115.047 34.2095C115.472 33.7375 116.179 32.5366 116.179 29.7991V9.68746C116.179 9.68746 116.489 7.16499 114.198 5.37146H127.663C127.663 5.37146 134.247 5.39768 134.247 11.6488C134.247 11.6488 134.336 15.1205 130.918 16.7934C130.918 16.7934 136.176 17.7583 136.176 24.6964C136.176 31.6398 130.609 34.4927 126.149 34.4927H115.325C118.134 37.0676 121.835 39.1653 126.694 39.1653C126.694 39.1653 132.402 39.8732 137.968 35.1744L138.272 35.4366C138.272 35.4366 135.112 41.714 125.394 41.714C115.676 41.714 110.487 37.613 106.404 31.8286C102.3 26.0494 99.2128 18.1884 99.2128 18.1884H98.6205V30.0088ZM19.1337 3.32095C27.9813 3.32095 35.1988 10.4007 35.1988 19.0851C35.1988 27.7695 27.9813 34.8492 19.1337 34.8492C10.2861 34.8492 3.09485 27.7643 3.09485 19.0851C3.09485 10.4059 10.2914 3.32095 19.1337 3.32095ZM143.577 19.814L145.699 13.2325L148.32 21.1618C148.32 21.1618 146.858 19.9347 143.577 19.814ZM122.469 28.8079V18.5187C122.469 18.5187 123.035 18.2355 124.12 18.2093C125.368 18.1621 130.179 18.9173 130.179 24.2979C130.179 29.6994 126.17 31.021 124.566 31.021C122.962 31.021 122.469 30.056 122.469 28.8079ZM122.705 16.442H124.403C129.498 16.442 129.498 8.62811 124.403 8.62811H122.705V16.442ZM98.5525 16.8878H100.366C101.419 16.7966 102.4 16.3134 103.115 15.5338C103.83 14.7541 104.226 13.7346 104.226 12.6767C104.226 11.6187 103.83 10.5992 103.115 9.81954C102.4 9.03988 101.419 8.55674 100.366 8.46554H98.5525V16.8878ZM20.9525 33.6903C28.2172 32.6991 33.8518 26.5896 33.9251 19.2477C27.1584 21.0884 21.9641 26.7312 20.9525 33.6903ZM17.3411 33.6903C10.0765 32.6991 4.44188 26.5896 4.34753 19.2477C11.1405 21.0884 16.3086 26.7312 17.3411 33.6903ZM14.7728 19.3683C14.7728 24.9377 16.4239 30.056 19.1337 34.0207C21.8698 30.056 23.5261 24.9377 23.5261 19.3683C23.5261 13.7517 21.875 8.62811 19.139 4.6897C16.4239 8.62811 14.7728 13.7517 14.7728 19.3683Z" fill="white"/>
  </svg>